<svg width="155" height="110" viewBox="0 0 155 110" fill="none" xmlns="http://www.w3.org/2000/svg">
<g clip-path="url(#clip0_59_195)">
<path d="M26.3996 11.9168L28.5584 12.482L20.4987 22.9239L21.8043 28.2014L23.737 26.2127L25.5514 33.1912L27.3659 30.8633L30.8303 39.6043L27.5972 44.9383L26.6309 42.4409L22.2618 46.927L18.0058 36.0278L16.0782 37.7852L11.8222 28.9311L11.4264 38.0678L13.5287 37.0452L12.9633 46.1254L7.79751 49.3628L7.62788 47.0349L2.68824 49.815L3.31019 36.2487L1.43919 36.814L2.85786 25.8016L0.529392 26.7677L2.28731 13.9414L0.0153809 14.9075L1.02284 5.16444L6.81575 2.49743V4.25488L11.8119 1.6444L10.676 8.50977L12.7783 7.76979L11.7554 19.1778L17.5432 12.0812L15.3843 11.9116L23.7884 0.909561L28.9542 1.47482L27.8748 3.17575L33.2668 3.8592L26.3996 11.9168Z" fill="#CF3936"/>
<path d="M56.4846 43.0781L44.1072 46.2539V44.6095L34.341 47.3895L34.9629 42.7903L32.4648 43.8695L33.3181 37.9085L39.6764 35.8068L40.4731 27.4049L38.2577 28.5971L39.7895 15.3751L33.9401 17.3073L34.9064 11.8602L32.7475 12.1994L33.4312 6.46969L45.2946 1.92704L44.7857 4.98973L55.4052 0.395691L54.7832 4.76363L56.5977 4.14184L55.5748 10.555L49.3295 12.9394L48.3067 20.7143L50.9744 20.149L49.4992 30.1388L51.144 29.3422L50.2907 35.3597L56.9883 33.6588L55.6827 38.3145L57.3276 38.0319L56.4743 43.0833L56.4846 43.0781Z" fill="#CF3936"/>
<path d="M77.4871 43.5869L73.3442 46.3104L73.4008 44.0391L65.7369 48.0113L65.8499 44.9486L59.6612 48.0678L61.1365 35.9815L59.3785 36.9476L61.4808 25.4265L59.7229 26.2796L61.3112 14.702L59.4402 15.7246L61.7687 4.2035L67.2172 1.7626L66.8214 3.92087L71.7045 1.59302L69.4891 10.4471L71.8176 9.59405L69.4891 22.703L71.8741 21.6804L69.6588 34.5067L78.7413 30.0822L77.153 37.1788L79.5381 36.2693L77.4923 43.592L77.4871 43.5869Z" fill="#CF3936"/>
<path d="M99.9083 43.5869L95.7654 46.3104L95.8219 44.0391L88.158 48.0113L88.2711 44.9486L82.0824 48.0678L83.5576 35.9815L81.7997 36.9476L83.902 25.4265L82.1441 26.2796L83.7324 14.702L81.8614 15.7246L84.1898 4.2035L89.6384 1.7626L89.2426 3.92087L94.1257 1.59302L91.9103 10.4471L94.2387 9.59405L91.9103 22.703L94.2953 21.6804L92.0799 34.5067L101.162 30.0822L99.5742 37.1788L101.959 36.2693L99.9134 43.592L99.9083 43.5869Z" fill="#CF3936"/>
<path d="M125.167 10.2724L119.549 13.2785L119.379 11.3515L114.439 13.9054L113.987 16.5725L115.688 16.0637L115.123 19.0134L123.296 15.8941L122.386 20.3186L123.974 19.7533L122.895 25.483L117.729 28.3762L117.559 26.7883L114.326 28.5457L113.817 32.0093L115.575 31.1562L115.01 35.6989L120.458 32.6362L120.572 34.1675L125.398 31.2179L124.375 38.1963L125.85 37.8571L124.941 43.6485L118.752 47.0555L118.695 44.445L111.941 48.4173L111.772 45.9198L104.904 48.7564L106.21 39.1059L103.938 39.9024L105.47 31.1614L103.599 31.7266L105.758 22.7595L103.655 23.0987L105.583 14.6968L103.594 14.9794L105.182 6.80884L113.756 3.23227L113.473 5.10278L125.336 0L124.596 4.76876L125.958 4.31655L125.162 10.2775L125.167 10.2724Z" fill="#CF3936"/>
<path d="M153.381 16.0021C153.494 19.9743 152.471 22.6978 151.448 23.8335L150.143 22.8109C149.233 24.5118 148.385 25.8171 146.909 26.7266C147.192 27.5231 148.441 31.8345 148.441 31.8345L150.43 30.3597L154.291 40.6886L151.51 43.9825L150.713 42.3381L147.706 45.8582L145.038 39.2189L143.167 40.8633L139.024 31.6136L138.685 38.7667L140.674 37.7441V46.3155L135.396 49.3782L135.339 47.446L130.399 49.9435L131.14 37.2867L129.212 37.7955L130.235 27.1274L128.59 27.6362L129.952 17.9856L127.793 18.6691C127.793 18.6691 128.59 9.815 128.929 6.69579C128.929 6.69579 133.016 3.68962 137.503 2.38438L137.673 4.14183C140.114 2.83659 142.782 0.966084 146.246 0.904419L145.563 3.2888C148.971 2.32271 152.317 3.34532 154.532 6.18191L152.661 7.82631C153.514 8.56629 155.786 12.9342 154.763 16.3412C154.142 16.2282 153.854 16.1151 153.401 16.0021H153.381ZM141.286 10.668C139.641 10.8376 137.822 12.0298 137.822 12.0298L137.426 18.2169L139.353 17.6516C139.353 17.6516 138.958 21.8499 138.901 23.2117C140.15 22.1891 141.852 20.9404 142.648 19.296C143.332 17.8777 143.615 16.0637 143.445 14.4142L144.977 13.962C144.807 12.3176 143.162 10.4419 141.286 10.668Z" fill="#CF3936"/>
<path d="M29.0056 64.6146C29.1186 68.5868 28.0958 71.3104 27.0729 72.446L25.7673 71.4234C24.8575 73.1244 24.0094 74.4296 22.5342 75.3392C22.8169 76.1357 24.0659 80.4471 24.0659 80.4471L26.0551 78.9722L29.9154 89.3011L27.1346 92.5951L26.3378 90.9507L23.3309 94.4707L20.6632 87.8314L18.7922 89.4758L14.6492 80.2261L14.31 87.3792L16.2992 86.3566V94.9281L11.0203 97.9908L10.9638 96.0637L6.02413 98.5612L6.7643 85.9044L4.83676 86.4132L5.85964 75.7451L4.21481 76.2539L5.57694 66.6033L3.41809 67.2867C3.41809 67.2867 4.21481 58.4327 4.55405 55.3135C4.55405 55.3135 8.64044 52.3073 13.1278 51.0021L13.2974 52.7595C15.7389 51.4543 18.4066 49.5838 21.8711 49.5272L21.1875 51.9116C24.5953 50.9455 27.9416 51.9681 30.1569 54.8047L28.2859 56.4491C29.1392 57.1891 31.4111 61.557 30.3882 64.964C29.7663 64.851 29.4784 64.7379 29.0261 64.6249L29.0056 64.6146ZM16.916 59.2806C15.2712 59.4502 13.4516 60.6423 13.4516 60.6423L13.0558 66.8294L14.9833 66.2641C14.9833 66.2641 14.5875 70.4625 14.531 71.8243C15.7801 70.8016 17.4814 69.5529 18.2781 67.9085C18.9618 66.4902 19.2445 64.6763 19.0749 63.0267L20.6066 62.5745C20.437 60.9301 18.7922 59.0545 16.916 59.2806Z" fill="#CF3936"/>
<path d="M58.6948 85.1593L60.1135 86.5776C59.0906 89.075 56.1402 91.6855 53.5856 92.5385L54.3257 94.7533C51.4319 95.3186 48.5328 95.2055 46.0964 94.4142L45.531 96.5725C43.8296 96.0637 39.8563 94.4142 38.4891 91.5211L36.8442 93.5663C35.1429 91.1819 34.2331 86.4132 33.8938 82.2713L32.0794 83.1244C31.8532 79.3782 32.1924 74.1007 33.7242 70.0154L31.7915 70.185C32.4135 66.2127 33.9503 62.4101 36.6746 59.3474L35.2559 57.9856C36.7877 55.6012 41.6143 53.2734 44.1123 52.9342L43.8296 51.002C47.0062 50.2621 51.8328 51.4543 53.5393 53.2734L55.0145 51.1716C57.9084 53.6691 60.1238 59.5118 60.0672 64.3936L62.0565 63.8849C62.2261 66.4388 62.113 71.6033 60.6943 74.7225L62.8532 74.9486C62.2312 78.5817 60.864 82.7235 58.7103 85.1644L58.6948 85.1593ZM51.0309 77.2148C51.8277 74.8869 53.3594 69.2138 52.7889 66.4337L51.3702 66.8294C51.3702 65.7503 50.5169 62.9702 49.2113 62.0606C48.6459 61.7215 47.3403 61.4954 45.3511 63.3659C42.9661 65.5807 42.2311 68.0216 41.8301 70.5755L43.3619 70.4625C42.5652 72.9599 41.9998 77.8417 42.5086 80.4522L43.8708 79.4861C43.8708 81.5879 45.6287 85.7297 47.731 85.334C50.5683 84.7122 52.2132 80.2261 53.0099 77.333L51.0207 77.2199L51.0309 77.2148Z" fill="#CF3936"/>
<path d="M90.9387 57.2354C91.8485 58.8232 92.4139 61.5468 91.6789 63.9311C91.3397 64.1007 90.3733 63.6485 89.7514 63.9877C89.4687 66.9373 88.5023 68.9825 87.0836 70.5704C89.0112 71.9322 91.2266 74.5992 92.1364 76.9836L90.3219 78.1758C91.571 81.8654 91.7971 84.702 89.7565 89.5272C89.4738 89.2446 88.7336 88.3916 88.0551 87.7698C86.8061 90.9455 84.6472 93.6177 82.6066 94.4656L82.0977 92.4769C79.3735 94.2909 76.4231 96.11 74.7731 96.6752L74.66 93.9517L66.7699 97.4717L66.9961 89.3577L65.1816 90.3237L66.2611 78.4635L64.1588 79.4296L65.8036 69.2703L63.9891 69.8921C63.9891 69.8921 64.8424 62.3433 65.5774 58.3145C67.9624 55.2518 70.4605 53.4327 72.6194 52.184L72.9021 53.6588C74.4338 52.2405 77.2146 50.2518 78.8081 49.517C78.8081 49.517 79.2604 50.7657 79.43 51.1048C81.9281 49.5735 85.4491 48.8335 87.207 49.4039L86.1841 51.2179C88.9649 51.3875 91.2934 53.3762 92.8251 55.5858C91.9153 56.3258 91.463 56.665 90.9542 57.2302L90.9387 57.2354ZM79.6973 61.8911L80.0931 59.964C78.3917 59.6249 76.4025 60.1336 74.588 61.4954L73.7348 66.3207L75.4927 65.8119L75.3796 70.2364C75.3796 70.2364 77.7646 68.9877 78.731 66.7729C79.2398 66.999 79.6973 67.2816 79.9235 67.3381C81.5118 65.9764 81.4552 63.9877 81.4552 62.0606C81.0029 61.7215 79.6973 61.8911 79.6973 61.8911ZM79.1319 78.0627L79.4711 76.3618C79.4711 76.3618 76.86 77.6105 75.4413 78.0627L75.3282 82.2611L76.5773 81.8088L76.3511 86.2898C80.0417 84.6454 81.5169 81.2384 81.6865 77.7749L79.1319 78.0576V78.0627Z" fill="#CF3936"/>
<path d="M120.34 85.1593L121.759 86.5776C120.736 89.075 117.786 91.6855 115.231 92.5385L115.971 94.7533C113.077 95.3186 110.178 95.2055 107.742 94.4142L107.176 96.5725C105.475 96.0637 101.502 94.4142 100.134 91.5211L98.4896 93.5663C96.7882 91.1819 95.8784 86.4132 95.5392 82.2713L93.7247 83.1244C93.4986 79.3782 93.8378 74.1007 95.3696 70.0154L93.4369 70.185C94.0588 66.2127 95.5957 62.4101 98.32 59.3474L96.9013 57.9856C98.4331 55.6012 103.26 53.2734 105.758 52.9342L105.475 51.002C108.652 50.2621 113.478 51.4543 115.185 53.2734L116.66 51.1716C119.554 53.6691 121.769 59.5118 121.713 64.3936L123.702 63.8849C123.871 66.4388 123.758 71.6033 122.34 74.7225L124.499 74.9486C123.877 78.5817 122.509 82.7235 120.356 85.1644L120.34 85.1593ZM112.676 77.2148C113.473 74.8869 115.005 69.2138 114.434 66.4337L113.016 66.8294C113.016 65.7503 112.162 62.9702 110.857 62.0606C110.291 61.7215 108.986 61.4954 106.997 63.3659C104.611 65.5807 103.876 68.0216 103.476 70.5755L105.007 70.4625C104.211 72.9599 103.645 77.8417 104.154 80.4522L105.516 79.4861C105.516 81.5879 107.274 85.7297 109.376 85.334C112.214 84.7122 113.859 80.2261 114.655 77.333L112.666 77.2199L112.676 77.2148Z" fill="#CF3936"/>
<path d="M151.962 59.4502L147.023 62.1172V59.3936L143.445 61.8911L141.744 69.8921L144.298 69.4964L142.026 83.0062L144.638 82.7801L142.936 94.1315L137.996 96.629L138.336 93.5663L132.373 95.668L133.622 85.5087L131.751 85.9044L133.509 73.5868L130.898 74.2703L132.826 65.1901L125.388 68.8232L126.411 62.2405L124.252 63.037L125.727 56.2282L133.221 52.482L132.939 54.8664L141.399 50.6115L141.173 53.1089L151.674 47.4923L150.765 53.6228L152.98 52.6567L151.957 59.4656L151.962 59.4502Z" fill="#CF3936"/>
<path d="M9.48865 109.882L12.0638 102.646H14.0839L16.6591 109.882H14.9115L14.4232 108.376H11.7246L11.2363 109.882H9.48865ZM12.0895 107.153H14.0428L13.3694 105.108C13.2718 104.789 13.1792 104.45 13.0919 104.096H13.0405C12.9531 104.45 12.8606 104.789 12.7578 105.108L12.0844 107.153H12.0895Z" fill="#CF3936"/>
<path d="M17.3479 109.882V102.646H18.9773V109.882H17.3479Z" fill="#CF3936"/>
<path d="M20.0568 107.441V106.29H23.6754V107.441H20.0568Z" fill="#CF3936"/>
<path d="M24.7496 109.882V102.652H27.7669C28.3271 102.652 28.8052 102.744 29.201 102.929C29.5968 103.114 29.8897 103.376 30.0953 103.715C30.301 104.054 30.3986 104.46 30.3986 104.918C30.3986 105.375 30.2958 105.786 30.0953 106.136C29.8949 106.485 29.5916 106.752 29.1958 106.937C28.8 107.127 28.322 107.22 27.7669 107.22H26.3585V109.882H24.7548H24.7496ZM27.6178 105.951C27.8645 105.951 28.0804 105.91 28.2552 105.832C28.43 105.755 28.5687 105.637 28.6664 105.483C28.7641 105.329 28.8103 105.144 28.8103 104.918C28.8103 104.692 28.7641 104.507 28.6664 104.358C28.5687 104.209 28.4351 104.101 28.2552 104.029C28.0753 103.957 27.8645 103.921 27.6178 103.921H26.3585V105.956H27.6178V105.951Z" fill="#CF3936"/>
<path d="M33.4673 110C32.9379 110 32.465 109.887 32.0435 109.656C31.622 109.424 31.293 109.096 31.0566 108.674C30.8201 108.248 30.7019 107.76 30.7019 107.205C30.7019 106.65 30.8201 106.156 31.0514 105.73C31.2827 105.303 31.6117 104.974 32.0332 104.738C32.4547 104.502 32.9379 104.383 33.4776 104.383C34.0173 104.383 34.5004 104.502 34.9168 104.733C35.3331 104.969 35.6621 105.298 35.8883 105.719C36.1196 106.146 36.2327 106.634 36.2327 107.194C36.2327 107.754 36.1144 108.243 35.878 108.669C35.6416 109.09 35.3126 109.419 34.8911 109.651C34.4696 109.882 33.9916 110 33.4621 110H33.4673ZM33.4673 108.741C33.7089 108.741 33.9196 108.679 34.1047 108.561C34.2897 108.443 34.4336 108.263 34.5364 108.032C34.6392 107.801 34.6906 107.523 34.6906 107.199C34.6906 106.876 34.6392 106.593 34.5364 106.357C34.4336 106.125 34.2897 105.946 34.1098 105.822C33.9248 105.699 33.714 105.637 33.4673 105.637C33.2206 105.637 33.015 105.699 32.8299 105.822C32.6449 105.946 32.5009 106.12 32.4033 106.357C32.3005 106.588 32.2491 106.871 32.2491 107.199C32.2491 107.528 32.3005 107.801 32.4033 108.032C32.5061 108.263 32.65 108.438 32.8299 108.561C33.015 108.684 33.2257 108.746 33.4673 108.746V108.741Z" fill="#CF3936"/>
<path d="M38.0214 109.882L36.2943 104.496H37.8055L38.5868 107.307C38.669 107.595 38.7359 107.898 38.7924 108.222H38.8387C38.9055 107.903 38.9774 107.6 39.0546 107.307L39.8307 104.496H41.0078L41.7891 107.302C41.8662 107.595 41.9382 107.903 42.005 108.222H42.0461C42.1078 107.909 42.1746 107.6 42.2568 107.302L43.0279 104.496H44.539L42.8222 109.882H41.3984L40.6634 107.307C40.5812 107.02 40.5092 106.716 40.4372 106.403H40.391C40.3242 106.716 40.2522 107.02 40.17 107.307L39.4298 109.882H38.0111H38.0214Z" fill="#CF3936"/>
<path d="M47.3147 109.995C46.775 109.995 46.3021 109.882 45.9012 109.651C45.5003 109.419 45.1816 109.096 44.9657 108.674C44.7498 108.253 44.6367 107.765 44.6367 107.21C44.6367 106.655 44.7447 106.156 44.9657 105.73C45.1867 105.303 45.4951 104.974 45.9012 104.738C46.3073 104.502 46.7801 104.383 47.3147 104.383C47.8493 104.383 48.2965 104.496 48.682 104.717C49.0675 104.943 49.3605 105.257 49.5661 105.663C49.7717 106.069 49.8745 106.536 49.8745 107.066C49.8745 107.138 49.8745 107.225 49.8642 107.318C49.8539 107.41 49.8488 107.503 49.8385 107.59H46.1274C46.1582 107.867 46.2302 108.099 46.3381 108.279C46.446 108.464 46.5797 108.592 46.7493 108.679C46.9189 108.762 47.1194 108.803 47.3507 108.803C47.5203 108.803 47.6745 108.777 47.803 108.726C47.9315 108.674 48.0446 108.602 48.132 108.51C48.2194 108.417 48.2811 108.309 48.3222 108.181H49.8128C49.7563 108.541 49.6175 108.854 49.3913 109.126C49.1703 109.399 48.8773 109.609 48.5175 109.764C48.1577 109.918 47.7568 109.99 47.3096 109.99L47.3147 109.995ZM48.3736 106.603C48.353 106.362 48.3016 106.156 48.2142 105.987C48.1269 105.817 48.0035 105.689 47.8493 105.601C47.6951 105.514 47.51 105.473 47.3044 105.473C47.0988 105.473 46.9292 105.509 46.7699 105.581C46.6105 105.653 46.4769 105.776 46.3689 105.946C46.261 106.115 46.1839 106.336 46.1376 106.603H48.3736Z" fill="#CF3936"/>
<path d="M50.6146 109.882V104.496H52.1464V105.534H52.1875C52.3211 105.195 52.5165 104.933 52.7735 104.758C53.0305 104.584 53.3337 104.496 53.6833 104.496H54.0225V105.94H53.6781C53.3749 105.94 53.1127 106.002 52.8814 106.12C52.6501 106.238 52.4702 106.408 52.3417 106.629C52.2132 106.85 52.1464 107.102 52.1464 107.395V109.882H50.6146Z" fill="#CF3936"/>
<path d="M56.9935 109.995C56.4538 109.995 55.9809 109.882 55.58 109.651C55.1791 109.419 54.8604 109.096 54.6445 108.674C54.4286 108.253 54.3156 107.765 54.3156 107.21C54.3156 106.655 54.4235 106.156 54.6445 105.73C54.8655 105.303 55.1739 104.974 55.58 104.738C55.9861 104.502 56.459 104.383 56.9935 104.383C57.5281 104.383 57.9753 104.496 58.3608 104.717C58.7463 104.943 59.0393 105.257 59.2449 105.663C59.4505 106.069 59.5533 106.536 59.5533 107.066C59.5533 107.138 59.5533 107.225 59.543 107.318C59.5328 107.41 59.5276 107.503 59.5173 107.59H55.8062C55.837 107.867 55.909 108.099 56.0169 108.279C56.1249 108.464 56.2585 108.592 56.4281 108.679C56.5978 108.762 56.7982 108.803 57.0295 108.803C57.1992 108.803 57.3534 108.777 57.4819 108.726C57.6104 108.674 57.7234 108.602 57.8108 108.51C57.8982 108.417 57.9599 108.309 58.001 108.181H59.4916C59.4351 108.541 59.2963 108.854 59.0702 109.126C58.8491 109.399 58.5561 109.609 58.1963 109.764C57.8365 109.918 57.4356 109.99 56.9884 109.99L56.9935 109.995ZM58.0524 106.603C58.0319 106.362 57.9804 106.156 57.8931 105.987C57.8057 105.817 57.6823 105.689 57.5281 105.601C57.3739 105.514 57.1889 105.473 56.9833 105.473C56.7777 105.473 56.608 105.509 56.4487 105.581C56.2894 105.653 56.1557 105.776 56.0478 105.946C55.9398 106.115 55.8627 106.336 55.8165 106.603H58.0524Z" fill="#CF3936"/>
<path d="M62.4061 110C61.9795 110 61.594 109.887 61.2547 109.666C60.9155 109.445 60.6533 109.121 60.458 108.7C60.2627 108.279 60.1702 107.78 60.1702 107.205C60.1702 106.629 60.2627 106.146 60.4477 105.719C60.6328 105.293 60.8949 104.964 61.2342 104.728C61.5734 104.491 61.9641 104.378 62.4113 104.378C62.658 104.378 62.8841 104.414 63.0897 104.481C63.3005 104.548 63.4855 104.651 63.6552 104.779C63.8248 104.908 63.9636 105.062 64.0767 105.242H64.1024V102.61H65.629V109.877H64.1024V109.132H64.0767C63.9584 109.322 63.8094 109.476 63.6397 109.604C63.4701 109.733 63.2799 109.83 63.0692 109.897C62.8584 109.964 62.6374 110 62.401 110H62.4061ZM62.9253 108.705C63.172 108.705 63.3827 108.643 63.5626 108.52C63.7425 108.397 63.8813 108.222 63.9841 107.996C64.0869 107.77 64.1332 107.503 64.1332 107.194C64.1332 106.886 64.0869 106.624 63.9893 106.393C63.8916 106.161 63.7528 105.987 63.5678 105.858C63.3827 105.73 63.172 105.668 62.9253 105.668C62.6785 105.668 62.4678 105.73 62.2828 105.853C62.1028 105.976 61.9589 106.151 61.8613 106.377C61.7636 106.603 61.7173 106.876 61.7173 107.184C61.7173 107.492 61.7687 107.765 61.8664 107.991C61.9692 108.217 62.108 108.392 62.293 108.515C62.4781 108.638 62.6837 108.695 62.9253 108.695V108.705Z" fill="#CF3936"/>
<path d="M72.2237 110C71.4989 110 70.8616 109.841 70.3167 109.522C69.7719 109.203 69.3555 108.762 69.0625 108.196C68.7695 107.631 68.6256 106.989 68.6256 106.264C68.6256 105.54 68.7695 104.897 69.0574 104.332C69.3452 103.767 69.7564 103.325 70.2961 103.006C70.8307 102.688 71.463 102.528 72.1877 102.528C72.7788 102.528 73.3083 102.641 73.776 102.867C74.2438 103.094 74.6241 103.412 74.912 103.823C75.1998 104.234 75.39 104.717 75.4722 105.262H73.8582C73.7966 104.985 73.6886 104.743 73.5447 104.543C73.4008 104.342 73.2157 104.188 72.9896 104.075C72.7634 103.962 72.5013 103.911 72.2083 103.911C71.8125 103.911 71.4732 104.013 71.1854 104.224C70.8975 104.43 70.6765 104.712 70.5275 105.072C70.3784 105.432 70.3013 105.827 70.3013 106.269C70.3013 106.742 70.3784 107.158 70.5275 107.513C70.6765 107.867 70.8975 108.14 71.1854 108.33C71.4732 108.525 71.8176 108.618 72.2185 108.618C72.5115 108.618 72.7788 108.561 73.0101 108.448C73.2466 108.335 73.4368 108.171 73.5858 107.965C73.7349 107.754 73.8325 107.513 73.8737 107.23H75.4928C75.4363 107.775 75.2666 108.258 74.9839 108.679C74.7012 109.101 74.326 109.424 73.8531 109.661C73.3802 109.897 72.8405 110.01 72.2288 110.01L72.2237 110Z" fill="#CF3936"/>
<path d="M76.1764 109.882V104.496H77.7081V105.534H77.7493C77.8829 105.195 78.0782 104.933 78.3352 104.758C78.5922 104.584 78.8955 104.496 79.245 104.496H79.5843V105.94H79.2399C78.9366 105.94 78.6745 106.002 78.4432 106.12C78.2119 106.238 78.032 106.408 77.9035 106.629C77.775 106.85 77.7081 107.102 77.7081 107.395V109.882H76.1764Z" fill="#CF3936"/>
<path d="M82.5553 109.995C82.0156 109.995 81.5427 109.882 81.1418 109.651C80.7409 109.419 80.4222 109.096 80.2063 108.674C79.9904 108.253 79.8773 107.765 79.8773 107.21C79.8773 106.655 79.9853 106.156 80.2063 105.73C80.4273 105.303 80.7357 104.974 81.1418 104.738C81.5479 104.502 82.0207 104.383 82.5553 104.383C83.0899 104.383 83.5371 104.496 83.9226 104.717C84.3081 104.943 84.6011 105.257 84.8067 105.663C85.0123 106.069 85.1151 106.536 85.1151 107.066C85.1151 107.138 85.1151 107.225 85.1048 107.318C85.0945 107.41 85.0894 107.503 85.0791 107.59H81.368C81.3988 107.867 81.4708 108.099 81.5787 108.279C81.6866 108.464 81.8203 108.592 81.9899 108.679C82.1595 108.762 82.36 108.803 82.5913 108.803C82.7609 108.803 82.9151 108.777 83.0436 108.726C83.1721 108.674 83.2852 108.602 83.3726 108.51C83.46 108.417 83.5217 108.309 83.5628 108.181H85.0534C84.9969 108.541 84.8581 108.854 84.6319 109.126C84.4109 109.399 84.1179 109.609 83.7581 109.764C83.3983 109.918 82.9974 109.99 82.5502 109.99L82.5553 109.995ZM83.6142 106.603C83.5936 106.362 83.5422 106.156 83.4548 105.987C83.3675 105.817 83.2441 105.689 83.0899 105.601C82.9357 105.514 82.7506 105.473 82.545 105.473C82.3394 105.473 82.1698 105.509 82.0105 105.581C81.8511 105.653 81.7175 105.776 81.6095 105.946C81.5016 106.115 81.4245 106.336 81.3782 106.603H83.6142Z" fill="#CF3936"/>
<path d="M87.2997 109.964C86.9553 109.964 86.6572 109.897 86.4053 109.764C86.1534 109.63 85.9632 109.45 85.8296 109.214C85.7011 108.977 85.6343 108.715 85.6343 108.417C85.6343 107.934 85.7885 107.559 86.102 107.292C86.4156 107.03 86.8473 106.85 87.3973 106.757L88.5487 106.572C88.6464 106.557 88.7235 106.542 88.7852 106.516C88.8468 106.49 88.8931 106.454 88.9188 106.408C88.9496 106.362 88.9651 106.3 88.9651 106.233C88.9651 106.1 88.9342 105.982 88.8623 105.874C88.7903 105.766 88.6978 105.689 88.5693 105.627C88.4408 105.57 88.2866 105.54 88.1118 105.54C87.937 105.54 87.788 105.57 87.6646 105.627C87.5413 105.683 87.4385 105.766 87.3665 105.868C87.2945 105.971 87.2483 106.1 87.2277 106.244H85.7628C85.7988 105.858 85.917 105.524 86.1174 105.242C86.3179 104.964 86.5903 104.748 86.9347 104.599C87.2791 104.45 87.68 104.378 88.1375 104.378C88.595 104.378 89.0062 104.45 89.3557 104.594C89.7001 104.738 89.9725 104.949 90.1627 105.231C90.3529 105.514 90.4506 105.853 90.4506 106.249V109.882H88.9702V109.101H88.9394C88.78 109.383 88.559 109.599 88.2763 109.748C87.9936 109.897 87.6698 109.969 87.3048 109.969L87.2997 109.964ZM87.8137 108.834C88.045 108.834 88.2454 108.777 88.4254 108.664C88.6001 108.551 88.7338 108.402 88.8314 108.212C88.9291 108.022 88.9702 107.816 88.9702 107.59V107.39C88.9239 107.42 88.8623 107.446 88.7903 107.467C88.7183 107.487 88.6361 107.508 88.5436 107.523L87.6903 107.662C87.5207 107.688 87.3871 107.749 87.2791 107.847C87.1712 107.945 87.1198 108.078 87.1198 108.253C87.1198 108.371 87.1455 108.474 87.202 108.561C87.2534 108.649 87.3356 108.72 87.4436 108.767C87.5515 108.813 87.6749 108.839 87.8188 108.839L87.8137 108.834Z" fill="#CF3936"/>
<path d="M93.2415 109.882C92.8663 109.882 92.5682 109.825 92.3472 109.717C92.1261 109.609 91.9719 109.45 91.8794 109.245C91.7869 109.039 91.7406 108.787 91.7406 108.484V105.694H90.8719V104.502H91.7406V103.16H93.2672V104.502H94.4186V105.694H93.2672V108.479C93.2672 108.541 93.2827 108.587 93.3084 108.618C93.3341 108.649 93.3855 108.664 93.4523 108.664H94.4032V109.882H93.2415Z" fill="#CF3936"/>
<path d="M95.8477 103.926C95.6781 103.926 95.529 103.89 95.4005 103.818C95.272 103.746 95.1692 103.643 95.0921 103.51C95.015 103.376 94.979 103.227 94.979 103.063C94.979 102.898 95.015 102.744 95.0921 102.616C95.1692 102.482 95.272 102.379 95.4005 102.307C95.529 102.235 95.6781 102.199 95.8477 102.199C96.0173 102.199 96.1664 102.235 96.3 102.307C96.4285 102.379 96.5313 102.482 96.6084 102.616C96.6804 102.749 96.7164 102.898 96.7164 103.063C96.7164 103.227 96.6804 103.381 96.6084 103.51C96.5365 103.643 96.4337 103.746 96.3 103.818C96.1715 103.89 96.0173 103.926 95.8477 103.926ZM95.0869 109.882V104.496H96.6187V109.882H95.0869Z" fill="#CF3936"/>
<path d="M99.1527 109.882L97.1018 104.496H98.6695L99.5588 107.256C99.6205 107.451 99.677 107.641 99.7284 107.831C99.7798 108.022 99.8312 108.196 99.8672 108.356H99.8877C99.9289 108.196 99.9751 108.027 100.027 107.831C100.078 107.636 100.134 107.446 100.196 107.256L101.06 104.496H102.633L100.618 109.882H99.1579H99.1527Z" fill="#CF3936"/>
<path d="M105.377 109.995C104.838 109.995 104.365 109.882 103.964 109.651C103.563 109.419 103.244 109.096 103.028 108.674C102.812 108.253 102.699 107.765 102.699 107.21C102.699 106.655 102.807 106.156 103.028 105.73C103.249 105.303 103.558 104.974 103.964 104.738C104.37 104.502 104.843 104.383 105.377 104.383C105.912 104.383 106.359 104.496 106.745 104.717C107.13 104.943 107.423 105.257 107.629 105.663C107.834 106.069 107.937 106.536 107.937 107.066C107.937 107.138 107.937 107.225 107.927 107.318C107.917 107.41 107.911 107.503 107.901 107.59H104.19C104.221 107.867 104.293 108.099 104.401 108.279C104.509 108.464 104.642 108.592 104.812 108.679C104.982 108.762 105.182 108.803 105.413 108.803C105.583 108.803 105.737 108.777 105.866 108.726C105.994 108.674 106.107 108.602 106.195 108.51C106.282 108.417 106.344 108.309 106.385 108.181H107.875C107.819 108.541 107.68 108.854 107.454 109.126C107.233 109.399 106.94 109.609 106.58 109.764C106.22 109.918 105.819 109.99 105.372 109.99L105.377 109.995ZM106.436 106.603C106.416 106.362 106.364 106.156 106.277 105.987C106.189 105.817 106.066 105.689 105.912 105.601C105.758 105.514 105.573 105.473 105.367 105.473C105.161 105.473 104.992 105.509 104.832 105.581C104.673 105.653 104.539 105.776 104.432 105.946C104.324 106.115 104.247 106.336 104.2 106.603H106.436Z" fill="#CF3936"/>
<path d="M113.653 110C113.036 110 112.507 109.908 112.07 109.723C111.633 109.538 111.299 109.265 111.062 108.905C110.826 108.546 110.692 108.104 110.661 107.59H112.337C112.347 107.816 112.404 108.011 112.507 108.181C112.609 108.35 112.759 108.484 112.949 108.582C113.139 108.679 113.381 108.726 113.663 108.726C113.91 108.726 114.116 108.695 114.285 108.628C114.455 108.566 114.588 108.469 114.686 108.345C114.784 108.222 114.83 108.073 114.83 107.893C114.83 107.713 114.789 107.564 114.702 107.446C114.614 107.328 114.48 107.235 114.301 107.158C114.121 107.086 113.869 107.02 113.555 106.968C112.964 106.871 112.476 106.747 112.095 106.593C111.715 106.439 111.422 106.223 111.211 105.94C111.001 105.658 110.898 105.298 110.898 104.856C110.898 104.368 111.006 103.947 111.217 103.597C111.432 103.248 111.741 102.98 112.152 102.795C112.563 102.61 113.057 102.518 113.632 102.518C114.208 102.518 114.681 102.605 115.087 102.785C115.493 102.965 115.807 103.227 116.038 103.571C116.269 103.916 116.398 104.342 116.439 104.841H114.763C114.753 104.625 114.702 104.44 114.609 104.286C114.516 104.126 114.383 104.008 114.213 103.926C114.044 103.844 113.838 103.803 113.596 103.803C113.38 103.803 113.19 103.839 113.031 103.905C112.872 103.972 112.748 104.07 112.661 104.198C112.573 104.327 112.532 104.476 112.532 104.645C112.532 104.805 112.568 104.938 112.645 105.041C112.723 105.144 112.846 105.231 113.021 105.298C113.195 105.365 113.437 105.432 113.756 105.493C114.383 105.601 114.892 105.74 115.282 105.899C115.673 106.059 115.976 106.285 116.192 106.572C116.408 106.86 116.516 107.246 116.516 107.724C116.516 108.227 116.403 108.649 116.177 108.993C115.951 109.337 115.627 109.594 115.2 109.758C114.773 109.928 114.259 110.01 113.663 110.01L113.653 110Z" fill="#CF3936"/>
<path d="M119.235 109.882C118.86 109.882 118.562 109.825 118.341 109.717C118.12 109.609 117.965 109.45 117.873 109.245C117.78 109.039 117.734 108.787 117.734 108.484V105.694H116.865V104.502H117.734V103.16H119.261V104.502H120.412V105.694H119.261V108.479C119.261 108.541 119.276 108.587 119.302 108.618C119.328 108.649 119.379 108.664 119.446 108.664H120.397V109.882H119.235Z" fill="#CF3936"/>
<path d="M126.056 104.496V109.882H124.524V109.101H124.493C124.334 109.388 124.118 109.609 123.851 109.769C123.584 109.928 123.265 110.005 122.895 110.005C122.499 110.005 122.165 109.923 121.887 109.753C121.61 109.584 121.399 109.342 121.255 109.018C121.111 108.7 121.039 108.314 121.039 107.867V104.502H122.571V107.641C122.571 107.97 122.653 108.232 122.813 108.412C122.972 108.597 123.198 108.69 123.491 108.69C123.702 108.69 123.887 108.643 124.041 108.551C124.195 108.458 124.319 108.325 124.401 108.16C124.483 107.991 124.524 107.801 124.524 107.59V104.502H126.056V104.496Z" fill="#CF3936"/>
<path d="M129.042 110C128.616 110 128.23 109.887 127.891 109.666C127.552 109.445 127.29 109.121 127.094 108.7C126.899 108.279 126.807 107.78 126.807 107.205C126.807 106.629 126.899 106.146 127.084 105.719C127.269 105.293 127.531 104.964 127.871 104.728C128.21 104.491 128.6 104.378 129.048 104.378C129.294 104.378 129.521 104.414 129.726 104.481C129.937 104.548 130.122 104.651 130.292 104.779C130.461 104.908 130.6 105.062 130.713 105.242H130.739V102.61H132.265V109.877H130.739V109.132H130.713C130.595 109.322 130.446 109.476 130.276 109.604C130.106 109.733 129.916 109.83 129.706 109.897C129.495 109.964 129.274 110 129.037 110H129.042ZM129.567 108.705C129.813 108.705 130.024 108.643 130.204 108.52C130.384 108.397 130.523 108.222 130.626 107.996C130.728 107.77 130.775 107.503 130.775 107.194C130.775 106.886 130.728 106.624 130.631 106.393C130.533 106.161 130.394 105.987 130.209 105.858C130.024 105.73 129.813 105.668 129.567 105.668C129.32 105.668 129.109 105.73 128.924 105.853C128.744 105.976 128.6 106.151 128.503 106.377C128.405 106.603 128.359 106.876 128.359 107.184C128.359 107.492 128.41 107.765 128.508 107.991C128.611 108.217 128.749 108.392 128.935 108.515C129.12 108.638 129.325 108.695 129.567 108.695V108.705Z" fill="#CF3936"/>
<path d="M133.977 103.926C133.807 103.926 133.658 103.89 133.53 103.818C133.401 103.746 133.298 103.643 133.221 103.51C133.144 103.376 133.108 103.227 133.108 103.063C133.108 102.898 133.144 102.744 133.221 102.616C133.298 102.482 133.401 102.379 133.53 102.307C133.658 102.235 133.807 102.199 133.977 102.199C134.147 102.199 134.296 102.235 134.429 102.307C134.558 102.379 134.661 102.482 134.738 102.616C134.81 102.749 134.846 102.898 134.846 103.063C134.846 103.227 134.81 103.381 134.738 103.51C134.666 103.643 134.563 103.746 134.429 103.818C134.301 103.89 134.147 103.926 133.977 103.926ZM133.216 109.882V104.496H134.748V109.882H133.216Z" fill="#CF3936"/>
<path d="M138.228 110C137.698 110 137.225 109.887 136.804 109.656C136.382 109.424 136.054 109.096 135.817 108.674C135.581 108.248 135.462 107.76 135.462 107.205C135.462 106.65 135.581 106.156 135.812 105.73C136.043 105.303 136.372 104.974 136.794 104.738C137.215 104.502 137.698 104.383 138.238 104.383C138.778 104.383 139.261 104.502 139.677 104.733C140.094 104.969 140.423 105.298 140.649 105.719C140.88 106.146 140.993 106.634 140.993 107.194C140.993 107.754 140.875 108.243 140.638 108.669C140.402 109.09 140.073 109.419 139.652 109.651C139.23 109.882 138.752 110 138.223 110H138.228ZM138.228 108.741C138.469 108.741 138.68 108.679 138.865 108.561C139.05 108.443 139.194 108.263 139.297 108.032C139.4 107.801 139.451 107.523 139.451 107.199C139.451 106.876 139.4 106.593 139.297 106.357C139.194 106.125 139.05 105.946 138.87 105.822C138.685 105.699 138.475 105.637 138.228 105.637C137.981 105.637 137.775 105.699 137.59 105.822C137.405 105.946 137.261 106.12 137.164 106.357C137.061 106.588 137.01 106.871 137.01 107.199C137.01 107.528 137.061 107.801 137.164 108.032C137.267 108.263 137.41 108.438 137.59 108.561C137.775 108.684 137.986 108.746 138.228 108.746V108.741Z" fill="#CF3936"/>
</g>
<defs>
<clipPath id="clip0_59_195">
<rect width="155" height="110" fill="white"/>
</clipPath>
</defs>
</svg>
